<svg xmlns="http://www.w3.org/2000/svg" xmlns:xlink="http://www.w3.org/1999/xlink" version="1.1" x="0px" y="0px" viewBox="0 0 128 160" style="enable-background:new 0 0 128 128;" xml:space="preserve"><g><g><path d="M60.5,38.5h3.7c0.3,0,0.5-0.2,0.5-0.5s-0.2-0.5-0.5-0.5h-3.7c-0.3,0-0.5,0.2-0.5,0.5S60.3,38.5,60.5,38.5    z"/><path d="M60.5,35.7h3.7c0.3,0,0.5-0.2,0.5-0.5s-0.2-0.5-0.5-0.5h-3.7c-0.3,0-0.5,0.2-0.5,0.5    S60.3,35.7,60.5,35.7z"/><circle cx="54.5" cy="42.6" r="2"/><path d="M60.5,41.1h3.7c0.3,0,0.5-0.2,0.5-0.5s-0.2-0.5-0.5-0.5h-3.7c-0.3,0-0.5,0.2-0.5,0.5    S60.3,41.1,60.5,41.1z"/><circle cx="62.3" cy="47.5" r="2"/><circle cx="70.6" cy="42.6" r="2"/><path d="M68.8,30.8h3.7c0.3,0,0.5-0.2,0.5-0.5c0-0.3-0.2-0.5-0.5-0.5h-3.7c-0.3,0-0.5,0.2-0.5,0.5    C68.4,30.6,68.6,30.8,68.8,30.8z"/><path d="M68.8,33.6h3.7c0.3,0,0.5-0.2,0.5-0.5s-0.2-0.5-0.5-0.5h-3.7c-0.3,0-0.5,0.2-0.5,0.5    S68.6,33.6,68.8,33.6z"/><path d="M68.8,36.2h3.7c0.3,0,0.5-0.2,0.5-0.5s-0.2-0.5-0.5-0.5h-3.7c-0.3,0-0.5,0.2-0.5,0.5    S68.6,36.2,68.8,36.2z"/><path d="M52.7,30.8h3.7c0.3,0,0.5-0.2,0.5-0.5c0-0.3-0.2-0.5-0.5-0.5h-3.7c-0.3,0-0.5,0.2-0.5,0.5    C52.3,30.6,52.5,30.8,52.7,30.8z"/><rect x="33.4" y="83.5" width="13.6" height="5.8"/><path d="M82.9,99.2h2.3c0.3,0,0.5-0.2,0.5-0.5c0-0.3-0.2-0.5-0.5-0.5h-2.3c-0.3,0-0.5,0.2-0.5,0.5    C82.5,99,82.7,99.2,82.9,99.2z"/><path d="M46.6,90.9H33.9c-0.3,0-0.5,0.2-0.5,0.5c0,0.3,0.2,0.5,0.5,0.5h12.7c0.3,0,0.5-0.2,0.5-0.5    C47.1,91.1,46.9,90.9,46.6,90.9z"/><path d="M90,86.6H77.5c-0.3,0-0.5,0.2-0.5,0.5c0,0.3,0.2,0.5,0.5,0.5H90c0.3,0,0.5-0.2,0.5-0.5    C90.5,86.8,90.3,86.6,90,86.6z"/><path d="M72.2,82.1v13.8c0,0.3,0.2,0.5,0.5,0.5h22.9c0.3,0,0.5-0.2,0.5-0.5V82.1c0-0.3-0.2-0.5-0.5-0.5H72.6    C72.4,81.7,72.2,81.9,72.2,82.1z M73.1,82.6H95v12.9H73.1V82.6z"/><path d="M64,4C30.9,4,4,30.9,4,64s26.9,60,60,60s60-26.9,60-60S97.1,4,64,4z M66.1,26.8h9.1v21.4h-7.4V30.8h-1.7    V26.8z M65.8,60.1c-0.6-1.4-1.4-2.7-2.4-3.7c1.6,0.2,3.1,0.9,4.3,1.9C67.2,59.1,66.6,59.7,65.8,60.1z M68.4,59    c1.4,1.4,2.3,3.4,2.4,5.5h-4.1c0-1.2-0.2-2.4-0.6-3.5C67,60.5,67.8,59.8,68.4,59z M65,60.6c-0.7,0.3-1.5,0.5-2.3,0.6v-4.1    C63.7,58,64.5,59.2,65,60.6z M65.3,61.4c0.3,1,0.4,2,0.5,3.1h-3.1v-2.4C63.6,62,64.5,61.8,65.3,61.4z M65.8,65.4    c0,1-0.2,2-0.5,2.9c-0.8-0.3-1.7-0.5-2.6-0.6v-2.3H65.8z M65,69.2c-0.5,1.4-1.3,2.6-2.3,3.5v-4.1C63.5,68.7,64.3,68.9,65,69.2z     M65.9,69.6c0.8,0.5,1.5,1,2,1.8c-1.3,1.1-2.8,1.8-4.6,2.1C64.4,72.4,65.3,71.1,65.9,69.6z M66.2,68.7c0.3-1,0.5-2.2,0.6-3.3h4.1    c-0.1,2.1-0.9,3.9-2.2,5.3C67.9,69.9,67.1,69.2,66.2,68.7z M65.2,31.7h1.7v17.4v4h-4.3v3c0,0.3-0.2,0.5-0.5,0.5s-0.5-0.2-0.5-0.5    v-3h-3.9v-4V31.7h2.1H65.2z M58.3,61.1c-0.3,1.1-0.5,2.2-0.5,3.4h-4.1c0.1-2.1,0.9-3.9,2.3-5.4C56.6,59.9,57.4,60.6,58.3,61.1z     M56.6,58.5c1.2-1.1,2.8-1.8,4.4-2c-1.1,1-1.9,2.3-2.5,3.8C57.8,59.8,57.2,59.2,56.6,58.5z M57.8,65.4c0,1.1,0.2,2.2,0.5,3.3    c-0.9,0.5-1.7,1.2-2.4,2c-1.3-1.4-2.1-3.3-2.2-5.3H57.8z M58.6,69.6c0.6,1.5,1.5,2.9,2.6,3.9c-1.8-0.2-3.4-1-4.6-2.1    C57.1,70.6,57.8,70,58.6,69.6z M59.4,69.2c0.7-0.3,1.5-0.5,2.3-0.5v4.1C60.8,71.8,60,70.6,59.4,69.2z M59.2,68.3    c-0.3-0.9-0.4-1.9-0.5-2.9h3.1v2.3C60.9,67.8,60,68,59.2,68.3z M58.7,64.5c0-1,0.2-2,0.5-3c0.8,0.3,1.7,0.5,2.6,0.6v2.4H58.7z     M59.4,60.6c0.5-1.4,1.3-2.7,2.3-3.6v4.1C61,61.1,60.2,61,59.4,60.6z M50,26.8H59v4h-2.1v2.1c-0.1-0.1-0.2-0.2-0.4-0.2h-3.7    c-0.3,0-0.5,0.2-0.5,0.5s0.2,0.5,0.5,0.5h3.7c0.2,0,0.3-0.1,0.4-0.2v2.2c-0.1-0.1-0.2-0.2-0.4-0.2h-3.7c-0.3,0-0.5,0.2-0.5,0.5    s0.2,0.5,0.5,0.5h3.7c0.2,0,0.3-0.1,0.4-0.2v12.3H50V26.8z M51.4,97.3c0,0.3-0.3,0.6-0.6,0.6h-10v2.3h4c0.3,0,0.5,0.2,0.5,0.5    s-0.2,0.5-0.5,0.5h-9c-0.3,0-0.5-0.2-0.5-0.5s0.2-0.5,0.5-0.5h4V98H30c-0.3,0-0.6-0.3-0.6-0.6v-2h22.1L51.4,97.3z M53.4,79.1    c-0.1,0-0.2,0-0.2-0.1c-0.1,0-0.1,0.1-0.2,0.1H40.2v2h10.7c0.2,0,0.3,0.1,0.4,0.2c0.1,0.1,0.2,0.3,0.2,0.4l0,12.7H29.4V81.7    c0-0.3,0.3-0.6,0.6-0.6h9.3v-2.9h13.7c0.1,0,0.2,0,0.2,0.1c0.1,0,0.1-0.1,0.2-0.1h8.4v-3.3c0-0.3,0.2-0.5,0.5-0.5s0.5,0.2,0.5,0.5    v3.3h22.6v2.8h11.7v16.1H71.2V80.9h13.2v-1.8H53.4z M96.7,99.8H71.5c-1,0-1.8-0.8-1.9-1.8h29.1C98.5,99,97.7,99.8,96.7,99.8z"/><path d="M90,90.9H77.5c-0.3,0-0.5,0.2-0.5,0.5s0.2,0.5,0.5,0.5H90c0.3,0,0.5-0.2,0.5-0.5S90.3,90.9,90,90.9z"/></g></g><text x="0" y="143" fill="#000000" font-size="5px" font-weight="bold" font-family="'Helvetica Neue', Helvetica, Arial-Unicode, Arial, Sans-serif">Created by Shocho</text><text x="0" y="148" fill="#000000" font-size="5px" font-weight="bold" font-family="'Helvetica Neue', Helvetica, Arial-Unicode, Arial, Sans-serif">from the Noun Project</text></svg>